<?xml version="1.0" encoding="UTF-8" standalone="no"?>
<!DOCTYPE svg PUBLIC "-//W3C//DTD SVG 1.1//EN"
 "http://www.w3.org/Graphics/SVG/1.1/DTD/svg11.dtd">
<!-- Generated by graphviz version 12.2.1 (20241206.2353)
 -->
<!-- Title: G Pages: 1 -->
<svg width="516pt" height="487pt"
 viewBox="0.00 0.00 516.20 486.95" xmlns="http://www.w3.org/2000/svg" xmlns:xlink="http://www.w3.org/1999/xlink">
<g id="graph0" class="graph" transform="scale(1 1) rotate(0) translate(21.6 465.35)">
<title>G</title>
<polygon fill="#111111" stroke="none" points="-21.6,21.6 -21.6,-465.35 494.6,-465.35 494.6,21.6 -21.6,21.6"/>
<!-- app/api/health/route.ts -->
<g id="node1" class="node">
<title>app/api/health/route.ts</title>
<path fill="none" stroke="#cfffac" d="M186.96,-23.75C186.96,-23.75 53.29,-23.75 53.29,-23.75 49.33,-23.75 45.38,-19.79 45.38,-15.83 45.38,-15.83 45.38,-7.92 45.38,-7.92 45.38,-3.96 49.33,0 53.29,0 53.29,0 186.96,0 186.96,0 190.92,0 194.88,-3.96 194.88,-7.92 194.88,-7.92 194.88,-15.83 194.88,-15.83 194.88,-19.79 190.92,-23.75 186.96,-23.75"/>
<text text-anchor="middle" x="120.12" y="-6.45" font-family="Arial" font-size="14.00" fill="#cfffac">app/api/health/route.ts</text>
</g>
<!-- app/layout.tsx -->
<g id="node2" class="node">
<title>app/layout.tsx</title>
<path fill="none" stroke="#cfffac" d="M161.83,-65.75C161.83,-65.75 78.42,-65.75 78.42,-65.75 74.46,-65.75 70.5,-61.79 70.5,-57.83 70.5,-57.83 70.5,-49.92 70.5,-49.92 70.5,-45.96 74.46,-42 78.42,-42 78.42,-42 161.83,-42 161.83,-42 165.79,-42 169.75,-45.96 169.75,-49.92 169.75,-49.92 169.75,-57.83 169.75,-57.83 169.75,-61.79 165.79,-65.75 161.83,-65.75"/>
<text text-anchor="middle" x="120.12" y="-48.45" font-family="Arial" font-size="14.00" fill="#cfffac">app/layout.tsx</text>
</g>
<!-- app/page.tsx -->
<g id="node3" class="node">
<title>app/page.tsx</title>
<path fill="none" stroke="#cfffac" d="M158.83,-107.75C158.83,-107.75 81.42,-107.75 81.42,-107.75 77.46,-107.75 73.5,-103.79 73.5,-99.83 73.5,-99.83 73.5,-91.92 73.5,-91.92 73.5,-87.96 77.46,-84 81.42,-84 81.42,-84 158.83,-84 158.83,-84 162.79,-84 166.75,-87.96 166.75,-91.92 166.75,-91.92 166.75,-99.83 166.75,-99.83 166.75,-103.79 162.79,-107.75 158.83,-107.75"/>
<text text-anchor="middle" x="120.12" y="-90.45" font-family="Arial" font-size="14.00" fill="#cfffac">app/page.tsx</text>
</g>
<!-- components/Button/Button.stories.tsx -->
<g id="node4" class="node">
<title>components/Button/Button.stories.tsx</title>
<path fill="none" stroke="#c6c5fe" d="M232.33,-149.75C232.33,-149.75 7.92,-149.75 7.92,-149.75 3.96,-149.75 0,-145.79 0,-141.83 0,-141.83 0,-133.92 0,-133.92 0,-129.96 3.96,-126 7.92,-126 7.92,-126 232.33,-126 232.33,-126 236.29,-126 240.25,-129.96 240.25,-133.92 240.25,-133.92 240.25,-141.83 240.25,-141.83 240.25,-145.79 236.29,-149.75 232.33,-149.75"/>
<text text-anchor="middle" x="120.12" y="-132.45" font-family="Arial" font-size="14.00" fill="#c6c5fe">components/Button/Button.stories.tsx</text>
</g>
<!-- components/Button/Button.tsx -->
<g id="node5" class="node">
<title>components/Button/Button.tsx</title>
<path fill="none" stroke="#cfffac" d="M465.08,-149.75C465.08,-149.75 284.17,-149.75 284.17,-149.75 280.21,-149.75 276.25,-145.79 276.25,-141.83 276.25,-141.83 276.25,-133.92 276.25,-133.92 276.25,-129.96 280.21,-126 284.17,-126 284.17,-126 465.08,-126 465.08,-126 469.04,-126 473,-129.96 473,-133.92 473,-133.92 473,-141.83 473,-141.83 473,-145.79 469.04,-149.75 465.08,-149.75"/>
<text text-anchor="middle" x="374.62" y="-132.45" font-family="Arial" font-size="14.00" fill="#cfffac">components/Button/Button.tsx</text>
</g>
<!-- components/Button/Button.stories.tsx&#45;&gt;components/Button/Button.tsx -->
<g id="edge1" class="edge">
<title>components/Button/Button.stories.tsx&#45;&gt;components/Button/Button.tsx</title>
<path fill="none" stroke="#757575" d="M240.72,-137.88C248.68,-137.88 256.68,-137.88 264.59,-137.88"/>
<polygon fill="#757575" stroke="#757575" points="264.59,-141.38 274.59,-137.88 264.59,-134.38 264.59,-141.38"/>
</g>
<!-- components/Tooltip/Tooltip.tsx -->
<g id="node6" class="node">
<title>components/Tooltip/Tooltip.tsx</title>
<path fill="none" stroke="#cfffac" d="M210.58,-191.75C210.58,-191.75 29.67,-191.75 29.67,-191.75 25.71,-191.75 21.75,-187.79 21.75,-183.83 21.75,-183.83 21.75,-175.92 21.75,-175.92 21.75,-171.96 25.71,-168 29.67,-168 29.67,-168 210.58,-168 210.58,-168 214.54,-168 218.5,-171.96 218.5,-175.92 218.5,-175.92 218.5,-183.83 218.5,-183.83 218.5,-187.79 214.54,-191.75 210.58,-191.75"/>
<text text-anchor="middle" x="120.12" y="-174.45" font-family="Arial" font-size="14.00" fill="#cfffac">components/Tooltip/Tooltip.tsx</text>
</g>
<!-- env.mjs -->
<g id="node7" class="node">
<title>env.mjs</title>
<path fill="none" stroke="#cfffac" d="M397.96,-233.75C397.96,-233.75 351.29,-233.75 351.29,-233.75 347.33,-233.75 343.38,-229.79 343.38,-225.83 343.38,-225.83 343.38,-217.92 343.38,-217.92 343.38,-213.96 347.33,-210 351.29,-210 351.29,-210 397.96,-210 397.96,-210 401.92,-210 405.88,-213.96 405.88,-217.92 405.88,-217.92 405.88,-225.83 405.88,-225.83 405.88,-229.79 401.92,-233.75 397.96,-233.75"/>
<text text-anchor="middle" x="374.62" y="-216.45" font-family="Arial" font-size="14.00" fill="#cfffac">env.mjs</text>
</g>
<!-- jest.config.js -->
<g id="node8" class="node">
<title>jest.config.js</title>
<path fill="none" stroke="#cfffac" d="M157.33,-275.75C157.33,-275.75 82.92,-275.75 82.92,-275.75 78.96,-275.75 75,-271.79 75,-267.83 75,-267.83 75,-259.92 75,-259.92 75,-255.96 78.96,-252 82.92,-252 82.92,-252 157.33,-252 157.33,-252 161.29,-252 165.25,-255.96 165.25,-259.92 165.25,-259.92 165.25,-267.83 165.25,-267.83 165.25,-271.79 161.29,-275.75 157.33,-275.75"/>
<text text-anchor="middle" x="120.12" y="-258.45" font-family="Arial" font-size="14.00" fill="#cfffac">jest.config.js</text>
</g>
<!-- jest.setup.js -->
<g id="node9" class="node">
<title>jest.setup.js</title>
<path fill="none" stroke="#cfffac" d="M155.83,-317.75C155.83,-317.75 84.42,-317.75 84.42,-317.75 80.46,-317.75 76.5,-313.79 76.5,-309.83 76.5,-309.83 76.5,-301.92 76.5,-301.92 76.5,-297.96 80.46,-294 84.42,-294 84.42,-294 155.83,-294 155.83,-294 159.79,-294 163.75,-297.96 163.75,-301.92 163.75,-301.92 163.75,-309.83 163.75,-309.83 163.75,-313.79 159.79,-317.75 155.83,-317.75"/>
<text text-anchor="middle" x="120.12" y="-300.45" font-family="Arial" font-size="14.00" fill="#cfffac">jest.setup.js</text>
</g>
<!-- lp&#45;items.tsx -->
<g id="node10" class="node">
<title>lp&#45;items.tsx</title>
<path fill="none" stroke="#cfffac" d="M154.71,-359.75C154.71,-359.75 85.54,-359.75 85.54,-359.75 81.58,-359.75 77.62,-355.79 77.62,-351.83 77.62,-351.83 77.62,-343.92 77.62,-343.92 77.62,-339.96 81.58,-336 85.54,-336 85.54,-336 154.71,-336 154.71,-336 158.67,-336 162.62,-339.96 162.62,-343.92 162.62,-343.92 162.62,-351.83 162.62,-351.83 162.62,-355.79 158.67,-359.75 154.71,-359.75"/>
<text text-anchor="middle" x="120.12" y="-342.45" font-family="Arial" font-size="14.00" fill="#cfffac">lp&#45;items.tsx</text>
</g>
<!-- next.config.ts -->
<g id="node11" class="node">
<title>next.config.ts</title>
<path fill="none" stroke="#c6c5fe" d="M159.96,-233.75C159.96,-233.75 80.29,-233.75 80.29,-233.75 76.33,-233.75 72.38,-229.79 72.38,-225.83 72.38,-225.83 72.38,-217.92 72.38,-217.92 72.38,-213.96 76.33,-210 80.29,-210 80.29,-210 159.96,-210 159.96,-210 163.92,-210 167.88,-213.96 167.88,-217.92 167.88,-217.92 167.88,-225.83 167.88,-225.83 167.88,-229.79 163.92,-233.75 159.96,-233.75"/>
<text text-anchor="middle" x="120.12" y="-216.45" font-family="Arial" font-size="14.00" fill="#c6c5fe">next.config.ts</text>
</g>
<!-- next.config.ts&#45;&gt;env.mjs -->
<g id="edge2" class="edge">
<title>next.config.ts&#45;&gt;env.mjs</title>
<path fill="none" stroke="#757575" d="M168.32,-221.88C215.23,-221.88 286.5,-221.88 331.54,-221.88"/>
<polygon fill="#757575" stroke="#757575" points="331.43,-225.38 341.43,-221.88 331.43,-218.38 331.43,-225.38"/>
</g>
<!-- report&#45;bundle&#45;size.js -->
<g id="node12" class="node">
<title>report&#45;bundle&#45;size.js</title>
<path fill="none" stroke="#cfffac" d="M181.33,-401.75C181.33,-401.75 58.92,-401.75 58.92,-401.75 54.96,-401.75 51,-397.79 51,-393.83 51,-393.83 51,-385.92 51,-385.92 51,-381.96 54.96,-378 58.92,-378 58.92,-378 181.33,-378 181.33,-378 185.29,-378 189.25,-381.96 189.25,-385.92 189.25,-385.92 189.25,-393.83 189.25,-393.83 189.25,-397.79 185.29,-401.75 181.33,-401.75"/>
<text text-anchor="middle" x="120.12" y="-384.45" font-family="Arial" font-size="14.00" fill="#cfffac">report&#45;bundle&#45;size.js</text>
</g>
<!-- styles/tailwind.css -->
<g id="node13" class="node">
<title>styles/tailwind.css</title>
<path fill="none" stroke="#cfffac" d="M173.83,-443.75C173.83,-443.75 66.42,-443.75 66.42,-443.75 62.46,-443.75 58.5,-439.79 58.5,-435.83 58.5,-435.83 58.5,-427.92 58.5,-427.92 58.5,-423.96 62.46,-420 66.42,-420 66.42,-420 173.83,-420 173.83,-420 177.79,-420 181.75,-423.96 181.75,-427.92 181.75,-427.92 181.75,-435.83 181.75,-435.83 181.75,-439.79 177.79,-443.75 173.83,-443.75"/>
<text text-anchor="middle" x="120.12" y="-426.45" font-family="Arial" font-size="14.00" fill="#cfffac">styles/tailwind.css</text>
</g>
</g>
</svg>
